<svg width="307" height="355" fill="none" xmlns="http://www.w3.org/2000/svg"><path fill-rule="evenodd" clip-rule="evenodd" d="M205.5 411C92.236 411 0 318.764 0 205.5S92.236 0 205.5 0 411 92.236 411 205.5c0 65.862-31.188 124.613-79.562 162.254 2.343-2.36 3.857-5.553 4.083-9.176.479-3.827.479-6.697.479-10.045v-4.784a132.716 132.716 0 00-1.56-17.848C363.927 294.343 382 251.99 382 205.5 382 108.186 302.814 29 205.5 29S29 108.186 29 205.5c0 46.877 18.375 89.547 48.299 121.186a129.846 129.846 0 00-1.252 21.847c0 2.87 0 6.218.479 10.045.478 8.132 7.18 13.873 15.32 13.394 8.138-.478 13.882-7.175 13.404-15.307a46.578 46.578 0 01-.471-6.302C133.361 370.298 168.091 382 205.5 382c37.857 0 72.971-11.984 101.747-32.357-.04.825-.116 1.693-.194 2.589-.125 1.432-.256 2.932-.256 4.433-.479 7.653 5.266 14.829 13.405 15.307h.957a14.58 14.58 0 007.212-1.878C294.07 395.773 251.521 411 205.5 411zm101.747-61.357a177.997 177.997 0 0027.193-23.742c-9.934-63.534-65.27-111.189-131.05-109.874-64.801 1.286-117.292 49.084-126.091 110.659a177.869 177.869 0 0027.48 23.677c-.008-.62-.008-1.225-.008-1.83v-4.306c.957-55.968 47.395-100.456 103.407-99.02 56.012.956 100.534 47.357 99.098 103.326 0 .359-.011.73-.029 1.11zm21.124 20.451c1.03-.77 2.052-1.551 3.067-2.34a14.14 14.14 0 01-3.067 2.34zM147 142.5c0 31.839 25.661 57.5 57.5 57.5s57.5-25.661 57.5-57.5S236.339 85 204.5 85 147 110.661 147 142.5zm58.5-28.5c-16.443 0-29.5 13.057-29.5 29.5 0 16.443 13.057 29.5 29.5 29.5 16.443 0 29.5-13.057 29.5-29.5 0-16.443-13.057-29.5-29.5-29.5z" fill="#F9FAFF"/></svg>